<svg xmlns="http://www.w3.org/2000/svg" xmlns:xlink="http://www.w3.org/1999/xlink" viewBox="0,0,256,256" width="64px" height="64px"><g fill="none" fill-rule="nonzero" stroke="none" stroke-width="1" stroke-linecap="butt" stroke-linejoin="miter" stroke-miterlimit="10" stroke-dasharray="" stroke-dashoffset="0" font-family="none" font-weight="none" font-size="none" text-anchor="none" style="mix-blend-mode: normal"><g transform="scale(4,4)"><path d="M31,3c-15.46397,0 -28,12.53603 -28,28c0,15.46397 12.53603,28 28,28c15.46397,0 28,-12.53603 28,-28c0,-15.46397 -12.53603,-28 -28,-28z" fill="#2d3142"></path><path d="M31,3c-15.46397,0 -28,12.53603 -28,28c0,15.46397 12.53603,28 28,28c15.46397,0 28,-12.53603 28,-28c0,-15.46397 -12.53603,-28 -28,-28zM31,53c-9.89151,0.00157 -18.56791,-6.59855 -21.20639,-16.13167c-2.63848,-9.53312 1.40975,-19.65504 9.89448,-24.73947c8.48473,-5.08442 19.31956,-3.88108 26.48191,2.94114l0.68,0.67c0.26,0.26667 0.51,0.54 0.75,0.82c5.65876,6.50435 6.99678,15.71456 3.42275,23.56022c-3.57404,7.84566 -11.40137,12.88065 -20.02275,12.87978z" fill="#4f5d75"></path><path d="M31,53c-12.15026,0 -22,-9.84974 -22,-22h-1.66c-1.18747,-0.00401 -2.31534,0.51979 -3.07839,1.42965c-0.76305,0.90987 -1.08239,2.11173 -0.87161,3.28035c2.28563,13.46288 13.94948,23.31343 27.605,23.31343c13.65552,0 25.31937,-9.85054 27.605,-23.31343c0.21047,-1.1669 -0.10762,-2.36703 -0.86841,-3.2765c-0.76079,-0.90947 -1.88587,-1.43454 -3.07159,-1.4335h-1.66c0,12.15026 -9.84974,22 -22,22z" fill="#bfc0c0"></path><path d="M31,2c-16.01626,0 -29,12.98374 -29,29c0,16.01626 12.98374,29 29,29c16.01626,0 29,-12.98374 29,-29c0,-16.01626 -12.98374,-29 -29,-29zM31,58c-14.91169,0 -27,-12.08831 -27,-27c0,-14.91169 12.08831,-27 27,-27c14.91169,0 27,12.08831 27,27c0,14.91169 -12.08831,27 -27,27z" fill="#ef8354"></path><path d="M31,50c-0.55228,0 -1,0.44772 -1,1v2c0,0.55228 0.44772,1 1,1c0.55228,0 1,-0.44772 1,-1v-2c0,-0.55228 -0.44772,-1 -1,-1zM37,50.08c-0.15796,-0.51527 -0.69585,-0.81268 -1.21624,-0.67247c-0.52039,0.14021 -0.83605,0.66758 -0.71376,1.19247l0.52,1.93c0.14636,0.53572 0.69928,0.85136 1.235,0.705c0.53572,-0.14636 0.85136,-0.69928 0.705,-1.235zM21.75,47.52c-0.23052,-0.13355 -0.50481,-0.16958 -0.762,-0.10012c-0.2572,0.06946 -0.47605,0.23868 -0.608,0.47012l-1,1.73c-0.19706,0.30999 -0.20831,0.70306 -0.0293,1.02381c0.17901,0.32075 0.51946,0.51754 0.88675,0.51257c0.36729,-0.00497 0.70229,-0.21091 0.87255,-0.53638l1,-1.73c0.13437,-0.22931 0.17194,-0.50268 0.10439,-0.75973c-0.06755,-0.25705 -0.23464,-0.47664 -0.46439,-0.61027zM41.62,47.89c-0.17026,-0.32548 -0.50526,-0.53141 -0.87255,-0.53638c-0.36729,-0.00497 -0.70774,0.19182 -0.88675,0.51257c-0.17901,0.32075 -0.16776,0.71382 0.0293,1.02381l1,1.73c0.17026,0.32548 0.50526,0.53141 0.87255,0.53638c0.36729,0.00497 0.70774,-0.19182 0.88675,-0.51257c0.17901,-0.32075 0.16776,-0.71382 -0.0293,-1.02381zM26.21,49.37c-0.5328,-0.13972 -1.07828,0.17772 -1.22,0.71l-0.52,1.92c-0.10711,0.34939 -0.0151,0.72939 0.23998,0.99109c0.25508,0.2617 0.63259,0.36341 0.98462,0.26529c0.35202,-0.09813 0.62249,-0.38046 0.70541,-0.73637l0.52,-1.93c0.13972,-0.5328 -0.17772,-1.07828 -0.71,-1.22z" fill="#ef8354"></path><path d="M43,30h-11v-11c0,-0.55228 -0.44772,-1 -1,-1c-0.55228,0 -1,0.44772 -1,1v11h-11c-0.55228,0 -1,0.44772 -1,1c0,0.55228 0.44772,1 1,1h11v11c0,0.55228 0.44772,1 1,1c0.55228,0 1,-0.44772 1,-1v-11h11c0.55228,0 1,-0.44772 1,-1c0,-0.55228 -0.44772,-1 -1,-1z" fill="#ffffff"></path><path d="M38.35,11.32c0.71623,0.2682 1.41727,0.57532 2.1,0.92c0.49429,0.24853 1.09647,0.04929 1.345,-0.445c0.24853,-0.49429 0.04929,-1.09647 -0.445,-1.345c-0.74791,-0.37492 -1.51572,-0.70875 -2.3,-1c-0.33939,-0.14971 -0.73376,-0.09926 -1.02452,0.13107c-0.29077,0.23033 -0.43015,0.60268 -0.3621,0.96732c0.06805,0.36464 0.33235,0.66166 0.68662,0.77161zM16.15,16.15c4.775,-4.75469 11.53537,-6.94001 18.19,-5.88c0.55228,0.08837 1.07163,-0.28772 1.16,-0.84c0.08837,-0.55228 -0.28772,-1.07163 -0.84,-1.16c-9.86117,-1.60342 -19.62969,3.34258 -24.17414,12.23985c-4.54445,8.89727 -2.8254,19.71077 4.25414,26.76015c0.39676,0.33978 0.98819,0.31693 1.35756,-0.05244c0.36937,-0.36937 0.39221,-0.9608 0.05244,-1.35756c-3.94179,-3.93873 -6.15652,-9.28263 -6.15652,-14.855c0,-5.57237 2.21473,-10.91627 6.15652,-14.855zM47.26,14.74c-0.6586,-0.6615 -1.35653,-1.28263 -2.09,-1.86c-0.4349,-0.29119 -1.02077,-0.19777 -1.34354,0.21423c-0.32278,0.412 -0.27327,1.00319 0.11354,1.35577c0.6702,0.52783 1.30802,1.09553 1.91,1.7c3.93873,3.93833 6.15152,9.28008 6.15152,14.85c0,5.56992 -2.21279,10.91167 -6.15152,14.85c-0.28538,0.24439 -0.40968,0.62812 -0.32181,0.99342c0.08787,0.3653 0.37309,0.65052 0.73839,0.73839c0.3653,0.08787 0.74903,-0.03643 0.99342,-0.32181c8.97745,-8.98127 8.97745,-23.53873 0,-32.52z" fill="#ef8354"></path></g></g></svg>